<?xml version="1.0" encoding="UTF-8" standalone="no"?>
<!-- Created with Inkscape (http://www.inkscape.org/) -->

<svg
   width="24mm"
   height="32mm"
   viewBox="0 0 24 32"
   version="1.1"
   id="svg1"
   inkscape:version="1.3 (0e150ed6c4, 2023-07-21)"
   sodipodi:docname="rysunek.svg"
   inkscape:export-filename="rysunek.png"
   inkscape:export-xdpi="96"
   inkscape:export-ydpi="96"
   xmlns:inkscape="http://www.inkscape.org/namespaces/inkscape"
   xmlns:sodipodi="http://sodipodi.sourceforge.net/DTD/sodipodi-0.dtd"
   xmlns="http://www.w3.org/2000/svg"
   xmlns:svg="http://www.w3.org/2000/svg">
  <sodipodi:namedview
     id="namedview1"
     pagecolor="#ffffff"
     bordercolor="#000000"
     borderopacity="0.25"
     inkscape:showpageshadow="2"
     inkscape:pageopacity="0.0"
     inkscape:pagecheckerboard="0"
     inkscape:deskcolor="#d1d1d1"
     inkscape:document-units="mm"
     inkscape:zoom="4"
     inkscape:cx="159"
     inkscape:cy="92.375"
     inkscape:window-width="2560"
     inkscape:window-height="1369"
     inkscape:window-x="-8"
     inkscape:window-y="-8"
     inkscape:window-maximized="1"
     inkscape:current-layer="layer1"
     inkscape:export-bgcolor="#ffffff00" />
  <defs
     id="defs1" />
  <g
     inkscape:label="Warstwa 1"
     inkscape:groupmode="layer"
     id="layer1">
    <g
       id="g5"
       transform="matrix(1.1084289,0,0,1.5837625,-1.8052422,-1.2731826)"
       style="stroke-width:1.1321196;stroke-dasharray:none">
      <path
         style="fill:none;stroke:#000000;stroke-width:1.1321196;stroke-linecap:butt;stroke-linejoin:miter;stroke-opacity:1;stroke-dasharray:none"
         d="M 4.5575447,2.2154731 8.2447251,5.9026533 6.2666239,7.8807544 c 0,0 1.9306267,6.1083756 9.3049871,9.3049866"
         id="path1" />
      <path
         style="fill:none;stroke:#000000;stroke-width:1.1321196;stroke-linecap:butt;stroke-linejoin:miter;stroke-opacity:1;stroke-dasharray:none"
         d="M 4.5575447,2.2154731 3.498407,3.2746106"
         id="path3" />
      <path
         style="fill:none;stroke:#000000;stroke-width:1.1321196;stroke-linecap:butt;stroke-linejoin:miter;stroke-opacity:1;stroke-dasharray:none"
         d="m 15.571611,17.185741 1.398674,-2.422575 4.51037,2.604063 -0.749567,1.298288"
         id="path4" />
      <path
         style="fill:none;stroke:#000000;stroke-width:1.1321196;stroke-linecap:butt;stroke-linejoin:miter;stroke-opacity:1;stroke-dasharray:none"
         d="m 20.731088,18.665517 c 0,0 -19.0158734,4.086577 -17.232681,-15.3909064"
         id="path5" />
    </g>
    <rect
       style="fill:#000000;stroke:#000000;stroke-width:0;stroke-dasharray:none"
       id="rect5"
       width="0.443665"
       height="0.63392431"
       x="2.8028073"
       y="1.6016763" />
    <rect
       style="fill:#000000;stroke:#000000;stroke-width:0;stroke-dasharray:none"
       id="rect6"
       width="0.44366464"
       height="0.63392442"
       x="3.2464724"
       y="1.6016763" />
    <rect
       style="fill:#000000;stroke:#000000;stroke-width:0;stroke-dasharray:none"
       id="rect7"
       width="0.22183257"
       height="0.63392431"
       x="3.2464719"
       y="1.6016763" />
    <rect
       style="fill:#000000;stroke:#000000;stroke-width:0;stroke-dasharray:none"
       id="rect8"
       width="0.50003678"
       height="0.67698467"
       x="1.6288283"
       y="3.2814174" />
    <rect
       style="fill:#000000;stroke:#000000;stroke-width:0;stroke-dasharray:none"
       id="rect10"
       width="0.17853615"
       height="0.61840892"
       x="2.5079238"
       y="2.6919069"
       transform="matrix(0.95974258,0.28088107,-0.28906384,0.95730982,0,0)"
       inkscape:transform-center-x="0.010957861"
       inkscape:transform-center-y="-0.0080910987" />
    <rect
       style="fill:#000000;stroke:#000000;stroke-width:0;stroke-dasharray:none"
       id="rect12"
       width="0.67360437"
       height="0.44291762"
       x="15.321321"
       y="25.94495" />
    <rect
       style="fill:#000000;stroke:#000000;stroke-width:0;stroke-dasharray:none"
       id="rect14"
       width="0.79639268"
       height="0.42821109"
       x="15.203699"
       y="26.338257" />
    <path
       style="fill:#ffffff;fill-opacity:1;stroke:#000000;stroke-width:0;stroke-linecap:butt;stroke-linejoin:miter;stroke-dasharray:none;stroke-opacity:1"
       d="m 16.02283,26.378565 -0.819131,0.418596 0.806728,0.0055 z"
       id="path14"
       sodipodi:nodetypes="cccc" />
    <path
       style="fill:#000000;fill-opacity:1;stroke:#000000;stroke-width:0;stroke-linecap:butt;stroke-linejoin:miter;stroke-dasharray:none;stroke-opacity:1"
       d="m 21.716296,28.738882 -0.41284,0.427417 -0.153532,-0.901507 c 0,0 0.577741,0.445151 0.566372,0.47409 z"
       id="path15"
       sodipodi:nodetypes="cccc" />
    <path
       style="fill:#ffffff;fill-opacity:1;stroke:#000000;stroke-width:0;stroke-dasharray:none"
       d="M 56.25724,105.09951 C 44.14949,103.63504 33.457012,97.998902 26.013449,89.15762 19.388593,81.28878 14.371026,69.49102 12.017893,56.25 10.248885,46.29584 9.4866875,33.636426 9.9797978,22.399082 l 0.2622312,-5.975917 0.92054,-1.336582 C 11.668866,14.351462 12.16553,13.75 12.266267,13.75 c 0.258513,0 11.736081,16.483135 11.72291,16.835474 -0.006,0.159239 -1.674329,2.649651 -3.707502,5.534247 l -3.696678,5.244721 0.567229,2.400158 c 2.417954,10.231272 8.741847,23.96548 15.494344,33.650557 5.225692,7.49519 11.903767,14.533055 18.640427,19.644705 2.772075,2.103398 5.864155,4.190138 6.208843,4.190138 0.14763,0 0.914765,-0.32628 1.704742,-0.72506 l 1.436325,-0.725048 2.22019,-5.587447 c 1.221108,-3.073095 2.252048,-5.627315 2.290983,-5.676048 0.03894,-0.04873 3.248112,2.53877 7.131507,5.75 3.883398,3.211233 7.15169,5.900743 7.262873,5.976693 0.307745,0.21022 -1.067055,3.46223 -1.520395,3.5964 -1.113973,0.32969 -6.210525,1.162 -8.486053,1.38584 -3.508935,0.34516 -9.789752,0.27619 -13.278772,-0.14582 z"
       id="path16"
       transform="scale(0.26458333)" />
    <path
       style="fill:#ffffff;fill-opacity:1;stroke:#000000;stroke-width:0;stroke-dasharray:none"
       d="M 56.25724,105.09951 C 44.14949,103.63504 33.457012,97.998902 26.013449,89.15762 19.232711,81.103625 14.304249,69.35531 11.893954,55.5 10.24899,46.04411 9.5232361,33.732795 9.970924,22.878696 l 0.265956,-6.448055 0.923115,-1.34032 C 11.667707,14.353144 12.168199,13.75 12.272199,13.75 c 0.265857,0 11.730193,16.464983 11.716978,16.827826 -0.006,0.163446 -1.674329,2.657299 -3.707502,5.541895 l -3.696678,5.244721 0.567229,2.400158 C 18.404634,49.06401 21.068144,56.28336 24.11059,62.625 30.708307,76.377205 39.31395,87.485267 50,96.042745 c 2.585765,2.070702 7.11136,5.207255 7.51332,5.207255 0.138015,0 0.894605,-0.32586 1.68131,-0.72413 l 1.43037,-0.724125 2.229152,-5.588373 c 1.226035,-3.073605 2.259655,-5.628242 2.296935,-5.676975 0.04864,-0.06358 12.179723,9.791015 14.424528,11.717653 0.29454,0.25279 -1.093493,3.4694 -1.55618,3.60627 -1.112525,0.32911 -6.21081,1.16146 -8.483423,1.38501 -3.508935,0.34516 -9.789752,0.27619 -13.278772,-0.14582 z"
       id="path17"
       transform="scale(0.26458333)" />
    <path
       style="fill:#ffffff;fill-opacity:1;stroke:#000000;stroke-width:0;stroke-dasharray:none"
       d="M 57.125,105.22553 C 47.759355,104.25166 38.442242,100.44556 31.719781,94.84731 21.733385,86.530965 14.922631,73.02227 11.881828,55.5 10.260995,46.16014 9.5204326,33.532219 9.9633626,22.786716 l 0.2612644,-6.338283 0.929241,-1.349217 C 11.66495,14.357147 12.167572,13.75 12.270804,13.75 12.513403,13.75 24,30.181435 24,30.528469 24,30.672877 22.407592,33.059922 20.461316,35.833014 18.51504,38.606107 16.877141,41.1 16.821539,41.375 c -0.250705,1.239967 1.626172,7.588492 4.102002,13.875 7.308014,18.55615 18.547001,33.454662 32.951459,43.680782 3.57498,2.537978 3.502715,2.515888 5.274465,1.612288 L 60.625,99.790545 62.856527,94.207772 c 1.22734,-3.070525 2.261645,-5.62333 2.29846,-5.6729 0.04909,-0.0661 12.998515,10.452345 14.420628,11.713458 0.110337,0.0978 -0.106985,0.92692 -0.482938,1.84238 -0.775047,1.88728 -0.668832,1.83072 -4.717677,2.51183 -5.218153,0.87782 -12.329425,1.13464 -17.25,0.62299 z"
       id="path18"
       transform="scale(0.26458333)" />
    <path
       style="fill:#ffffff;fill-opacity:1;stroke:#000000;stroke-width:0;stroke-dasharray:none"
       d="M 57.125,105.22553 C 47.86146,104.26228 38.54034,100.48267 31.875,94.986927 21.454561,86.39501 14.643931,72.59893 11.641222,54 10.163024,44.843965 9.5378692,33.28573 9.9598145,22.913133 l 0.2628615,-6.461867 0.930216,-1.350633 C 11.664511,14.357785 12.167572,13.75 12.270804,13.75 12.511887,13.75 24,30.1803 24,30.525097 c 0,0.142553 -1.63125,2.602452 -3.625,5.466443 -1.99375,2.86399 -3.623974,5.415652 -3.62272,5.670357 0.004,0.80375 1.228224,5.346138 2.280979,8.463103 6.458336,19.121652 17.994961,35.972575 31.937633,46.64957 2.486888,1.904405 6.266708,4.47543 6.579598,4.47543 0.117572,0 0.857435,-0.32871 1.64414,-0.73047 l 1.43037,-0.730463 2.25,-5.639797 c 1.2375,-3.101888 2.323787,-5.613803 2.41397,-5.582033 0.09018,0.03177 3.16645,2.532763 6.83615,5.557763 3.6697,3.025 6.894672,5.67537 7.166607,5.88971 0.489773,0.38604 0.488135,0.40544 -0.174122,2.05972 -0.758933,1.89578 -0.655293,1.84053 -4.742605,2.52811 -5.218153,0.87782 -12.329425,1.13464 -17.25,0.62299 z"
       id="path19"
       transform="scale(0.26458333)" />
    <path
       style="fill:#f2f2f2;fill-opacity:1;stroke:#000000;stroke-width:0;stroke-dasharray:none"
       d="M 57.125,105.22553 C 53.774145,104.8771 49.795282,104.00218 46.304662,102.84624 25.761875,96.043367 13.832382,77.168585 10.637334,46.413577 9.9464329,39.763082 9.6653935,30.031109 9.958194,22.895989 l 0.265876,-6.47901 0.918409,-1.33349 C 11.647604,14.35007 12.150991,13.75 12.261115,13.75 c 0.110125,0 0.733628,0.759375 1.385563,1.6875 C 20.054635,24.560166 24,30.310982 24,30.528636 c 0,0.144623 -1.513119,2.444218 -3.362486,5.11021 -1.849367,2.665992 -3.494407,5.093756 -3.655645,5.395034 -0.22538,0.421125 -0.221704,0.870695 0.0159,1.944447 1.376868,6.22223 5.386973,16.668618 8.926682,23.254145 5.162658,9.60498 10.124781,16.372148 17.172948,23.419853 4.462873,4.462582 7.533828,7.045795 11.82101,9.943552 l 2.543405,1.719123 1.581595,-0.75145 1.581593,-0.75145 2.25,-5.652245 c 1.2375,-3.108733 2.32552,-5.62583 2.41782,-5.593548 0.0923,0.03228 3.129802,2.493493 6.75,5.469363 3.6202,2.975867 6.844837,5.622747 7.165862,5.881955 l 0.583683,0.471285 -0.671655,1.67777 c -0.762488,1.90466 -0.656338,1.84794 -4.74571,2.53586 -5.218153,0.87782 -12.329425,1.13464 -17.25,0.62299 z"
       id="path20"
       transform="scale(0.26458333)" />
    <path
       style="fill:#f2f2f2;fill-opacity:1;stroke:#000000;stroke-width:0;stroke-dasharray:none"
       d="m 59.125,105.21321 c -3.28024,-0.16639 -7.056408,-0.79585 -10.22334,-1.70415 -0.947838,-0.27185 -1.819713,-0.43471 -1.9375,-0.36191 -0.117788,0.0728 -0.21416,0.001 -0.21416,-0.15914 0,-0.16033 -0.161483,-0.22954 -0.358848,-0.1538 -0.197367,0.0757 -0.394242,0.0557 -0.4375,-0.0445 -0.09186,-0.21281 -4.347365,-1.87709 -4.60117,-1.79948 -0.09437,0.0289 -0.240407,-0.048 -0.324532,-0.17072 -0.08412,-0.12275 -1.05295,-0.71073 -2.15295,-1.30662 -3.730173,-2.020703 -6.415957,-4.054063 -9.758373,-7.38789 -3.218805,-3.210535 -5.114864,-5.29343 -4.959781,-5.448513 0.04386,-0.04386 -0.248399,-0.43901 -0.64946,-0.878115 C 23.106326,85.359267 22.822567,85 22.876811,85 22.931055,85 22.428547,84.118232 21.760126,83.040515 20.257159,80.617232 18.101512,76.319685 16.974612,73.5 c -0.467096,-1.16875 -0.905594,-2.18125 -0.974439,-2.25 -0.06884,-0.06875 -0.127312,-0.2375 -0.129925,-0.375 -0.0026,-0.1375 -0.358588,-1.375 -0.791055,-2.75 -1.016995,-3.233475 -1.692804,-5.761618 -2.205343,-8.25 -0.22657,-1.1 -0.477484,-2.16875 -0.557587,-2.375 -0.0801,-0.20625 -0.131594,-0.44794 -0.114423,-0.53709 0.01717,-0.08915 -0.134657,-1.0454 -0.337396,-2.125 -0.202738,-1.0796 -0.413359,-2.30041 -0.468045,-2.71291 -0.523902,-3.951815 -0.580074,-4.440785 -0.74671,-6.5 C 9.9693566,37.217753 9.7930011,28.046021 10.159475,20.130425 L 10.33284,16.38585 11.189871,15.192925 C 11.661239,14.536816 12.139268,14 12.252159,14 c 0.112891,0 0.627545,0.590625 1.143675,1.3125 0.516131,0.721875 1.060087,1.425 1.208793,1.5625 0.148705,0.1375 0.435182,0.569042 0.636615,0.958983 0.201434,0.389941 0.623309,0.986362 0.9375,1.325381 0.314192,0.339018 0.571258,0.680243 0.571258,0.758277 0,0.07803 1.106253,1.731612 2.458341,3.674619 3.785819,5.440382 4.541659,6.601782 4.541659,6.978575 0,0.191548 -1.0125,1.828706 -2.25,3.638129 -1.2375,1.809423 -2.25,3.393249 -2.25,3.519614 0,0.126365 -0.09218,0.267255 -0.20484,0.313089 -0.421513,0.17148 -2.29516,3.201605 -2.29516,3.71181 0,1.989173 3.317588,12.067328 5.636167,17.121523 0.378464,0.825 0.715874,1.628202 0.749802,1.784895 0.206472,0.953585 5.786139,11.37248 6.340773,11.840105 0.08154,0.06875 0.362848,0.546875 0.625126,1.0625 0.262277,0.515625 0.571652,0.9375 0.6875,0.9375 C 30.905215,74.5 31,74.66875 31,74.875 c 0,0.20625 0.1125,0.375 0.25,0.375 0.1375,0 0.25,0.12719 0.25,0.282642 0,0.327388 1.724098,2.801685 2.038629,2.92569 0.116254,0.04583 0.211371,0.19565 0.211371,0.332928 0,0.326022 1.03853,1.62004 5.188695,6.465152 2.658375,3.10352 8.20474,8.520723 11.120935,10.861948 2.716377,2.180807 6.967225,5.04071 7.44037,5.00576 0.20625,-0.0152 0.6,-0.11619 0.875,-0.22434 0.275,-0.10816 0.809375,-0.31225 1.1875,-0.45355 0.378125,-0.14129 0.6875,-0.36238 0.6875,-0.491315 0,-0.128933 0.09513,-0.175628 0.211405,-0.103768 0.185005,0.114338 1.89112,-3.846665 2.089525,-4.851147 0.04074,-0.20625 0.13643,-0.43125 0.212647,-0.5 0.07622,-0.06875 0.632958,-1.341558 1.2372,-2.82846 0.60424,-1.486905 1.169855,-2.747488 1.256918,-2.801295 0.13857,-0.08564 6.779832,5.1017 8.117305,6.340245 0.275,0.25466 1.23125,1.04459 2.125,1.755397 0.89375,0.71081 1.79375,1.449263 2,1.64101 0.20625,0.191745 0.77104,0.66801 1.255087,1.058365 1.007505,0.812488 1.007515,0.812568 0.30278,2.381128 -0.56451,1.25646 -1.449685,1.99854 -2.518255,2.11115 -0.365537,0.0385 -1.395862,0.19143 -2.289612,0.33981 -4.583073,0.76085 -9.57781,0.99726 -15.125,0.71586 z"
       id="path21"
       transform="scale(0.26458333)" />
    <path
       style="fill:#f2f2f2;fill-opacity:1;stroke:#000000;stroke-width:0;stroke-dasharray:none"
       d="m 58.317925,105.21418 c -2.753703,-0.19227 -6.962948,-0.94836 -9.547965,-1.71506 -0.882773,-0.26183 -1.698398,-0.41835 -1.8125,-0.34783 -0.114103,0.0705 -0.20746,-0.003 -0.20746,-0.16328 0,-0.16033 -0.155043,-0.23201 -0.344535,-0.15929 -0.189495,0.0727 -0.44262,0.0383 -0.5625,-0.0764 C 45.723082,102.63757 44.66875,102.19034 43.5,101.75847 42.33125,101.3266 41.20625,100.87169 41,100.74756 40.79375,100.62343 39.78125,100.05107 38.75,99.47566 34.974075,97.36878 32.389997,95.389942 28.98786,92 25.663645,88.6877 24,86.865192 24,86.53585 24,86.44457 23.71875,86.066575 23.375,85.695857 23.03125,85.325137 22.75,84.94198 22.75,84.844395 c 0,-0.09759 -0.496684,-0.97437 -1.103742,-1.948413 C 20.29203,80.723087 17.997798,76.137157 16.970312,73.549257 16.550113,72.490915 16.113211,71.5125 15.999417,71.375 c -0.113794,-0.1375 -0.216465,-0.334375 -0.228158,-0.4375 -0.01169,-0.103125 -0.02987,-0.215625 -0.04039,-0.25 -0.01052,-0.03437 -0.05598,-0.23125 -0.101016,-0.4375 -0.04504,-0.20625 -0.529559,-1.893985 -1.076714,-3.750523 C 13.194058,61.888002 11.62272,54.527435 11.137567,50.5 10.69572,46.832072 10.632691,46.108012 10.397655,42 10.307185,40.41875 10.17786,38.693666 10.110266,38.166479 9.9271171,36.738039 9.9542656,23.62808 10.148404,19.75 10.315564,16.410836 10.326517,16.362391 11.179971,15.1875 11.654408,14.534375 12.131986,14 12.241256,14 c 0.109269,0 0.682789,0.646875 1.274488,1.4375 0.591699,0.790625 1.139769,1.49375 1.217935,1.5625 0.07817,0.06875 0.29338,0.419064 0.478255,0.778476 0.184876,0.359412 0.606572,0.945127 0.937102,1.301589 0.33053,0.356462 0.600964,0.713384 0.600964,0.793161 0,0.07978 0.880376,1.406561 1.956391,2.948411 3.588295,5.141759 5.043609,7.364004 5.043609,7.701525 0,0.314964 -4.285599,6.991823 -4.919022,7.663717 -0.615429,0.652806 -2.080951,3.273978 -2.080348,3.720823 0.0021,1.542308 3.359625,11.836933 5.124898,15.713543 0.479551,1.053115 1.10259,2.61324 1.103573,2.763415 0.0017,0.257247 4.125771,8.200105 4.687244,9.02748 0.32101,0.473035 0.583655,0.95069 0.583655,1.061452 0,0.110763 0.3375,0.667293 0.75,1.236733 0.4125,0.56944 0.75,1.110075 0.75,1.201412 0,0.09134 0.28125,0.534805 0.625,0.985485 0.34375,0.45068 0.625,0.939423 0.625,1.086098 0,0.146675 0.09885,0.26668 0.21967,0.26668 0.120818,0 0.359467,0.3375 0.53033,0.75 0.170863,0.4125 0.40193,0.75 0.513483,0.75 0.111553,0 0.267941,0.205167 0.347529,0.455927 0.07959,0.250763 0.34199,0.672638 0.583115,0.9375 0.241124,0.264865 0.883,1.100323 1.42639,1.856573 0.543393,0.75625 1.048313,1.43125 1.122048,1.5 0.07373,0.06875 0.97335,1.1375 1.999147,2.375 1.794108,2.164372 7.423318,7.947937 9.758288,10.025865 2.854305,2.54009 7.408695,5.895925 9.386687,6.916435 0.727453,0.37532 0.830245,0.36008 2.287045,-0.33912 l 1.52536,-0.732098 0.928485,-2.31054 c 0.510665,-1.2708 0.954615,-2.423042 0.986555,-2.560542 0.03194,-0.1375 0.31049,-0.8125 0.619,-1.5 0.30851,-0.6875 0.84463,-1.954128 1.191375,-2.814728 0.346745,-0.8606 0.71297,-1.61573 0.813833,-1.678065 0.150527,-0.09303 3.864615,2.689915 5.26166,3.942535 0.20625,0.184928 0.880122,0.721888 1.497492,1.193245 0.617373,0.471358 1.236123,0.9811 1.375,1.132763 0.13888,0.151662 0.983758,0.863715 1.877508,1.582337 3.446655,2.7713 4.38359,3.606163 4.36776,3.891913 -0.0076,0.1375 -0.251708,0.77489 -0.54242,1.41641 -0.478053,1.05494 -1.455275,2.00064 -2.175383,2.10522 -0.930695,0.13516 -6.444297,0.88234 -7.274957,0.98587 -1.742825,0.21721 -8.651163,0.26711 -11.307075,0.0817 z"
       id="path22"
       transform="scale(0.26458333)" />
  </g>
</svg>
